HIERARCHY
ROOT hip
{
  OFFSET 0 0 0
  CHANNELS 6 Xposition Yposition Zposition Zrotation Yrotation Xrotation
  JOINT abdomen
  {
    OFFSET 0 20.6881 -0.73152
    CHANNELS 3 Zrotation Xrotation Yrotation
    JOINT chest
    {
      OFFSET 0 11.7043 -0.48768
      CHANNELS 3 Zrotation Xrotation Yrotation
      JOINT neck
      {
        OFFSET 0 22.1894 -2.19456
        CHANNELS 3 Zrotation Xrotation Yrotation
        JOINT head
        {
          OFFSET -0.24384 7.07133 1.2192
          CHANNELS 3 Zrotation Xrotation Yrotation
          JOINT leftEye
          {
            OFFSET 4.14528 8.04674 8.04672
            CHANNELS 3 Zrotation Xrotation Yrotation
            End Site
            {
              OFFSET 1 0 0
            }
          }
          JOINT rightEye
          {
            OFFSET -3.6576 8.04674 8.04672
            CHANNELS 3 Zrotation Xrotation Yrotation
            End Site
            {
              OFFSET 1 0 0
            }
          }
        }
      }
      JOINT rCollar
      {
        OFFSET -2.68224 19.2634 -4.8768
        CHANNELS 3 Zrotation Xrotation Yrotation
        JOINT rShldr
        {
          OFFSET -8.77824 -1.95073 1.46304
          CHANNELS 3 Zrotation Xrotation Yrotation
          JOINT rForeArm
          {
            OFFSET -28.1742 -1.7115 0.48768
            CHANNELS 3 Zrotation Xrotation Yrotation
            JOINT rHand
            {
              OFFSET -22.5879 0.773209 7.07136
              CHANNELS 3 Zrotation Xrotation Yrotation
              JOINT rThumb1
              {
                OFFSET -1.2192 -0.487915 3.41376
                CHANNELS 3 Zrotation Xrotation Yrotation
                JOINT rThumb2
                {
                  OFFSET -3.37035 -0.52449 3.41376
                  CHANNELS 3 Zrotation Xrotation Yrotation
                  End Site
                  {
                    OFFSET -1.78271 -1.18214 1.43049
                  }
                }
              }
              JOINT rIndex1
              {
                OFFSET -7.75947 0.938293 5.60832
                CHANNELS 3 Zrotation Xrotation Yrotation
                JOINT rIndex2
                {
                  OFFSET -2.54057 -0.884171 1.56538
                  CHANNELS 3 Zrotation Xrotation Yrotation
                  End Site
                  {
                    OFFSET -1.62519 -0.234802 1.16502
                  }
                }
              }
              JOINT rMid1
              {
                OFFSET -8.24714 1.18213 3.41376
                CHANNELS 3 Zrotation Xrotation Yrotation
                JOINT rMid2
                {
                  OFFSET -3.10165 -0.590103 1.0647
                  CHANNELS 3 Zrotation Xrotation Yrotation
                  End Site
                  {
                    OFFSET -2.48547 -0.328903 0.83742
                  }
                }
              }
              JOINT rRing1
              {
                OFFSET -8.82822 0.546677 1.51678
                CHANNELS 3 Zrotation Xrotation Yrotation
                JOINT rRing2
                {
                  OFFSET -2.60934 -0.819778 -0.0198488
                  CHANNELS 3 Zrotation Xrotation Yrotation
                  End Site
                  {
                    OFFSET -2.33842 -0.294052 0.168128
                  }
                }
              }
              JOINT rPinky1
              {
                OFFSET -8.27202 -0.0477905 -0.4584
                CHANNELS 3 Zrotation Xrotation Yrotation
                JOINT rPinky2
                {
                  OFFSET -1.82734 -0.647385 -0.700984
                  CHANNELS 3 Zrotation Xrotation Yrotation
                  End Site
                  {
                    OFFSET -1.69225 -0.51767 -0.607171
                  }
                }
              }
            }
          }
        }
      }
      JOINT lCollar
      {
        OFFSET 2.68224 19.2634 -4.8768
        CHANNELS 3 Zrotation Xrotation Yrotation
        JOINT lShldr
        {
          OFFSET 8.77824 -1.95073 1.46304
          CHANNELS 3 Zrotation Xrotation Yrotation
          JOINT lForeArm
          {
            OFFSET 28.1742 -1.7115 0.48768
            CHANNELS 3 Zrotation Xrotation Yrotation
            JOINT lHand
            {
              OFFSET 22.5879 0.773209 7.07136
              CHANNELS 3 Zrotation Xrotation Yrotation
              JOINT lThumb1
              {
                OFFSET 1.2192 -0.487915 3.41376
                CHANNELS 3 Zrotation Xrotation Yrotation
                JOINT lThumb2
                {
                  OFFSET 3.37035 -0.52449 3.41376
                  CHANNELS 3 Zrotation Xrotation Yrotation
                  End Site
                  {
                    OFFSET 1.78271 -1.18214 1.43049
                  }
                }
              }
              JOINT lIndex1
              {
                OFFSET 7.75947 0.938293 5.60832
                CHANNELS 3 Zrotation Xrotation Yrotation
                JOINT lIndex2
                {
                  OFFSET 2.54057 -0.884171 1.56538
                  CHANNELS 3 Zrotation Xrotation Yrotation
                  End Site
                  {
                    OFFSET 1.62519 -0.234802 1.16502
                  }
                }
              }
              JOINT lMid1
              {
                OFFSET 8.24714 1.18213 3.41376
                CHANNELS 3 Zrotation Xrotation Yrotation
                JOINT lMid2
                {
                  OFFSET 3.10165 -0.590103 1.0647
                  CHANNELS 3 Zrotation Xrotation Yrotation
                  End Site
                  {
                    OFFSET 2.48547 -0.328903 0.83742
                  }
                }
              }
              JOINT lRing1
              {
                OFFSET 8.82822 0.546677 1.51678
                CHANNELS 3 Zrotation Xrotation Yrotation
                JOINT lRing2
                {
                  OFFSET 2.60934 -0.819778 -0.0198488
                  CHANNELS 3 Zrotation Xrotation Yrotation
                  End Site
                  {
                    OFFSET 2.33842 -0.294052 0.168128
                  }
                }
              }
              JOINT lPinky1
              {
                OFFSET 8.27202 -0.0477905 -0.4584
                CHANNELS 3 Zrotation Xrotation Yrotation
                JOINT lPinky2
                {
                  OFFSET 1.82734 -0.647385 -0.700984
                  CHANNELS 3 Zrotation Xrotation Yrotation
                  End Site
                  {
                    OFFSET 1.69225 -0.51767 -0.607171
                  }
                }
              }
            }
          }
        }
      }
    }
  }
  JOINT rButtock
  {
    OFFSET -8.77824 4.35084 1.2192
    CHANNELS 3 Zrotation Xrotation Yrotation
    JOINT rThigh
    {
      OFFSET 0 -1.70687 -2.19456
      CHANNELS 3 Zrotation Xrotation Yrotation
      JOINT rShin
      {
        OFFSET 0 -36.8199 0.73152
        CHANNELS 3 Zrotation Xrotation Yrotation
        JOINT rFoot
        {
          OFFSET 0.73152 -45.1104 -5.12064
          CHANNELS 3 Zrotation Xrotation Yrotation
          End Site
          {
            OFFSET -1.1221 -3.69964 12.103
          }
        }
      }
    }
  }
  JOINT lButtock
  {
    OFFSET 8.77824 4.35084 1.2192
    CHANNELS 3 Zrotation Xrotation Yrotation
    JOINT lThigh
    {
      OFFSET 0 -1.70687 -2.19456
      CHANNELS 3 Zrotation Xrotation Yrotation
      JOINT lShin
      {
        OFFSET 0 -36.8199 0.73152
        CHANNELS 3 Zrotation Xrotation Yrotation
        JOINT lFoot
        {
          OFFSET -0.73152 -45.1104 -5.12064
          CHANNELS 3 Zrotation Xrotation Yrotation
          End Site
          {
            OFFSET 1.1221 -3.69964 12.103
          }
        }
      }
    }
  }
}
MOTION
Frames:	4
Frame Time:	0.03333
-0.27633755434852125 29.074284806046716 -0.2710090463005593 -133.57298278808594 80.40670013427734 -122.43599700927734 2.0321099758148193 21.32339859008789 -5.7045698165893555 9.261148452758789 -12.200200080871582 -0.42278099060058594 -8.365169525146484 24.221899032592773 -19.237598419189453 25.76189613342285 -33.84269714355469 -31.497699737548828 -0.0 0.0 -0.0 -0.0 0.0 -0.0 -1.908332704098764e-13 6.475609111433744e-12 9.54166352049382e-14 56.79259490966797 22.907899856567383 -5.176809787750244 -27.16609764099121 -43.55459976196289 90.5656967163086 -0.03497070074081421 -5.329659461975098 -0.7512249946594238 1.79841280756321e-10 1.0350542645198857e-09 -2.395078357864122e-09 3.1640157160950366e-10 1.7897489046347914e-09 -4.138671183540055e-09 1.79841280756321e-10 1.0350542645198857e-09 -2.395091236451208e-09 7.7309088706970215 5.474880218505859 0.41731396317481995 1.79841280756321e-10 1.0350542645198857e-09 -2.395091236451208e-09 2.9055399894714355 0.9651829600334167 0.10290198773145676 1.79841280756321e-10 1.0350542645198857e-09 -2.395091236451208e-09 10.27859878540039 0.73180091381073 0.025912299752235413 1.7982855482490123e-10 1.0350669210623664e-09 -2.395091236451208e-09 2.2216696739196777 -0.7334870100021362 -0.2089199721813202 -1.908332704098764e-13 6.475609111433744e-12 9.54166352049382e-14 -60.42539596557617 56.542198181152344 -14.29800033569336 27.655200958251953 -41.94489669799805 -87.48269653320312 1.1632099151611328 -29.078699111938477 4.482609748840332 4.1727601929331115e-10 -1.3267873466560332e-09 1.5390066998577367e-09 6.794427798162417e-10 -2.3101640600486917e-09 2.67323052582924e-09 4.172633072396792e-10 -1.3267873466560332e-09 1.53901946742252e-09 -7.7309088706970215 5.474880218505859 -0.41731396317481995 4.1727601929331115e-10 -1.3267873466560332e-09 1.5390003715864964e-09 -2.9055399894714355 0.9651829600334167 -0.10290198773145676 4.1727601929331115e-10 -1.3267873466560332e-09 1.5390003715864964e-09 -10.27859878540039 0.73180091381073 -0.025912299752235413 4.1727601929331115e-10 -1.3267746901135524e-09 1.5389876040217132e-09 -2.2216696739196777 -0.7334870100021362 0.2089199721813202 -0.0 0.0 -0.0 -47.2682991027832 -52.23469924926758 -35.07849884033203 -2.3639094829559326 73.89999389648438 3.8238697052001953 4.673799991607666 -19.057998657226562 6.606409549713135 -0.0 0.0 -0.0 65.91909790039062 -56.08819580078125 53.018898010253906 102.95599365234375 89.17717742919922 -105.7409896850586 3.1298599243164062 -23.60430145263672 11.0329008102417
-0.4959522819503643 29.650739111617455 -0.48816004996358464 -119.83198547363281 82.22261047363281 -107.88999938964844 1.5778998136520386 21.253799438476562 -5.019100189208984 9.34109878540039 -12.262999534606934 -0.23092998564243317 -8.461082458496094 24.012298583984375 -18.938199996948242 25.880996704101562 -34.25010299682617 -30.83669662475586 -0.0 0.0 -0.0 -0.0 0.0 -0.0 -1.2722218027325094e-13 1.0432219324507663e-12 1.208610712595884e-13 56.61619567871094 23.46739959716797 -4.682739734649658 -27.227001190185547 -43.37630081176758 90.21778869628906 -0.03463229537010193 -5.304000377655029 -0.7475869059562683 1.242337344109501e-09 2.6195809965656736e-09 -6.1760707659175296e-09 2.162675372119338e-09 4.532048514249709e-09 -1.0668196992469348e-08 1.242337344109501e-09 2.6195809965656736e-09 -6.1760769831664675e-09 7.7309088706970215 5.474880218505859 0.41731396317481995 1.242337344109501e-09 2.6195809965656736e-09 -6.1760769831664675e-09 2.9055399894714355 0.9651829600334167 0.10290198773145676 1.2423500006519816e-09 2.6195809965656736e-09 -6.1760769831664675e-09 10.27859878540039 0.73180091381073 0.025912299752235413 1.2423245765447177e-09 2.6195936531081543e-09 -6.1760707659175296e-09 2.2216696739196777 -0.7334870100021362 -0.2089199721813202 -1.2722218027325094e-13 1.0432219324507663e-12 1.208610712595884e-13 -59.79359817504883 56.565494537353516 -15.518699645996094 27.72650146484375 -41.66469955444336 -86.96019744873047 1.2177201509475708 -29.681602478027344 4.5943403244018555 2.1847101905336785e-09 -5.618093101844579e-09 5.747548215140341e-09 3.6368241751461028e-09 -9.76684688680507e-09 9.980879234205986e-09 2.1847101905336785e-09 -5.618093101844579e-09 5.747561093727427e-09 -7.7309088706970215 5.474880218505859 -0.41731396317481995 2.1847228470761593e-09 -5.618093101844579e-09 5.747541997891403e-09 -2.9055399894714355 0.9651829600334167 -0.10290198773145676 2.1847101905336785e-09 -5.618093101844579e-09 5.747541997891403e-09 -10.27859878540039 0.73180091381073 -0.025912299752235413 2.1847228470761593e-09 -5.618093101844579e-09 5.747529119304318e-09 -2.2216696739196777 -0.7334870100021362 0.2089199721813202 -0.0 0.0 -0.0 -48.30619430541992 -53.01679229736328 -37.51039505004883 -2.0436694622039795 71.65430450439453 3.264169692993164 6.08834981918335 -16.703699111938477 11.344598770141602 -0.0 0.0 -0.0 63.937294006347656 -54.83729934692383 51.925296783447266 31.30389976501465 88.52116394042969 -34.15009689331055 3.8676695823669434 -23.02760124206543 12.673699378967285
-0.693794607634028 30.2310866250151 -0.7087487998936685 -97.64429473876953 82.96530151367188 -85.18049621582031 1.0004298686981201 21.19339942932129 -4.213039875030518 9.525179862976074 -12.296500205993652 -0.003559309523552656 -8.554481506347656 23.855798721313477 -18.63970184326172 25.93979835510254 -34.812198638916016 -30.17279624938965 -0.0 0.0 -0.0 -0.0 0.0 -0.0 1.2722218027325094e-14 -9.541663249443277e-13 1.208610712595884e-13 56.17099380493164 24.0575008392334 -4.053040027618408 -27.285799026489258 -43.19949722290039 89.87399291992188 -0.03482790291309357 -5.318670272827148 -0.7496669292449951 1.5911042483551796e-09 3.194103648240798e-09 -6.936681451463755e-09 2.7699322835417206e-09 5.52855450308698e-09 -1.1984297998424154e-08 1.5911042483551796e-09 3.194103648240798e-09 -6.936687668712693e-09 7.7309088706970215 5.474880218505859 0.41731396317481995 1.5911042483551796e-09 3.194103648240798e-09 -6.936687668712693e-09 2.9055399894714355 0.9651829600334167 0.10290198773145676 1.5911042483551796e-09 3.194103648240798e-09 -6.936681451463755e-09 10.27859878540039 0.73180091381073 0.025912299752235413 1.5910914807903964e-09 3.194103648240798e-09 -6.93666857287667e-09 2.2216696739196777 -0.7334870100021362 -0.2089199721813202 1.2722218027325094e-14 -9.541663249443277e-13 1.208610712595884e-13 -59.452396392822266 56.61940383911133 -16.484399795532227 27.788999557495117 -41.4088020324707 -86.48409271240234 1.2897099256515503 -30.445301055908203 4.7380900382995605 2.62439003861914e-09 -7.168677207403107e-09 6.1913629778587165e-09 4.3821550832490175e-09 -1.2462697540627232e-08 1.0757100099567651e-08 2.62439003861914e-09 -7.168677207403107e-09 6.191369195107654e-09 -7.7309088706970215 5.474880218505859 -0.41731396317481995 2.62439003861914e-09 -7.1686900859901925e-09 6.1913629778587165e-09 -2.9055399894714355 0.9651829600334167 -0.10290198773145676 2.62439003861914e-09 -7.168677207403107e-09 6.1913629778587165e-09 -10.27859878540039 0.73180091381073 -0.025912299752235413 2.62439003861914e-09 -7.168677207403107e-09 6.191350099271631e-09 -2.2216696739196777 -0.7334870100021362 0.2089199721813202 -0.0 0.0 -0.0 -49.82290267944336 -53.50409698486328 -40.829097747802734 -1.7550098896026611 69.24830627441406 2.774139881134033 7.073709964752197 -13.745999336242676 16.314001083374023 -0.0 0.0 -0.0 61.9169921875 -53.30690002441406 50.94719696044922 14.931499481201172 87.14212036132812 -17.821199417114258 4.601529121398926 -22.403398513793945 14.38339900970459
-0.8688332128554803 30.77866289077502 -0.8640203574094278 -72.89869689941406 82.61479949951172 -59.896793365478516 0.5125060677528381 21.028400421142578 -3.4097800254821777 9.668569564819336 -12.210299491882324 0.21010999381542206 -8.632689476013184 23.717098236083984 -18.33789825439453 26.03510093688965 -35.205501556396484 -29.5060977935791 -0.0 0.0 -0.0 -0.0 0.0 -0.0 1.3994439830057603e-13 -2.0737216197691533e-12 1.1449996224592585e-13 55.7289924621582 24.582300186157227 -3.417489767074585 -27.34379768371582 -43.01969909667969 89.52629852294922 -0.03406919538974762 -5.260819911956787 -0.7414659261703491 9.45006406460891e-10 1.6968257909866225e-09 -4.129797392948831e-09 1.6485323106607552e-09 2.9405244905689187e-09 -7.137991087091677e-09 9.449936388961078e-10 1.6968257909866225e-09 -4.129797392948831e-09 7.7309088706970215 5.474880218505859 0.41731396317481995 9.45006406460891e-10 1.6968257909866225e-09 -4.129791175699893e-09 2.9055399894714355 0.9651829600334167 0.10290198773145676 9.45006406460891e-10 1.6968257909866225e-09 -4.129791175699893e-09 10.27859878540039 0.73180091381073 0.025912299752235413 9.449936388961078e-10 1.6968257909866225e-09 -4.129772079863869e-09 2.2216696739196777 -0.7334870100021362 -0.2089199721813202 1.3994439830057603e-13 -2.0737216197691533e-12 1.1449996224592585e-13 -59.227386474609375 56.73019790649414 -17.172901153564453 27.833696365356445 -41.2129020690918 -86.12509155273438 1.330430507659912 -30.858802795410156 4.817170143127441 1.4228019873385733e-09 -3.6681462312060376e-09 3.1712610315537404e-09 2.3787494196625403e-09 -6.375256322854739e-09 5.512021949982682e-09 1.4228019873385733e-09 -3.6681462312060376e-09 3.1712672488026783e-09 -7.7309088706970215 5.474880218505859 -0.41731396317481995 1.4228019873385733e-09 -3.6681462312060376e-09 3.1712672488026783e-09 -2.9055399894714355 0.9651829600334167 -0.10290198773145676 1.4228019873385733e-09 -3.6681462312060376e-09 3.1712610315537404e-09 -10.27859878540039 0.73180091381073 -0.025912299752235413 1.4228019873385733e-09 -3.668133574663557e-09 3.1712481529666547e-09 -2.2216696739196777 -0.7334870100021362 0.2089199721813202 -0.0 0.0 -0.0 -51.10850143432617 -53.7255973815918 -44.018802642822266 -1.556099772453308 67.2667007446289 2.5034596920013428 6.703419208526611 -10.237500190734863 18.90410041809082 -0.0 0.0 -0.0 60.173500061035156 -51.582000732421875 50.15579605102539 9.378079414367676 85.6618881225586 -12.276298522949219 5.2091898918151855 -21.774999618530273 15.883296966552734
